# Blender v2.80 (sub 75) OBJ File: ''
# www.blender.org
mtllib corner3.mtl
o Corner
v 0.740247 0.302794 -1.490247
v 0.749397 0.302794 -1.393387
v 0.749397 0.332794 -1.393387
v 0.740247 0.332794 -1.490247
v 0.770617 0.302794 -1.298437
v 0.770617 0.332794 -1.298437
v 0.803566 0.302794 -1.206897
v 0.803566 0.332794 -1.206897
v 0.847727 0.302794 -1.120207
v 0.847727 0.332794 -1.120207
v 0.902416 0.302794 -1.039737
v 0.902416 0.332794 -1.039737
v 0.966757 0.302794 -0.966757
v 0.966757 0.332794 -0.966757
v 1.039737 0.302794 -0.902416
v 1.039737 0.332794 -0.902416
v 1.490247 -0.297206 1.134753
v 1.490247 -0.297206 -1.115247
v 1.490247 0.252794 -1.115247
v 1.490247 0.332794 -1.115247
v 1.490247 0.332794 -0.740247
v 1.490247 0.302794 -0.740247
v 1.490247 0.002794 -0.740247
v 1.490247 0.002794 0.759753
v 1.490247 0.302794 0.759753
v 1.490247 0.332794 0.759753
v 1.490247 0.332794 1.134753
v 1.490247 0.252794 1.134753
v 1.115247 -0.297206 -1.490247
v -1.134753 -0.297206 -1.490247
v -1.134753 0.252794 -1.490247
v -1.134753 0.332794 -1.490247
v -0.759753 0.332794 -1.490247
v -0.759753 0.302794 -1.490247
v -0.759753 0.002794 -1.490247
v 0.740247 0.002794 -1.490247
v 1.115247 0.332794 -1.490247
v 1.115247 0.252794 -1.490247
v -1.112296 0.332794 -1.147617
v -1.045308 0.332794 -0.810847
v -0.934937 0.332794 -0.485707
v -0.783070 0.332794 -0.177747
v -0.592306 0.332794 0.107754
v -0.365914 0.332794 0.365914
v -0.107754 0.332794 0.592306
v 0.177747 0.332794 0.783070
v 0.485707 0.332794 0.934937
v 0.810847 0.332794 1.045308
v 1.147617 0.332794 1.112296
v 1.192157 0.332794 0.752926
v 0.897877 0.332794 0.704970
v 0.613037 0.332794 0.616807
v 0.343117 0.332794 0.490124
v 0.093297 0.332794 0.327363
v -0.131634 0.332794 0.131634
v -0.327363 0.332794 -0.093297
v -0.490124 0.332794 -0.343117
v -0.616807 0.332794 -0.613037
v -0.704970 0.332794 -0.897877
v -0.752926 0.332794 -1.192157
v -1.112296 0.252794 -1.147617
v -1.045308 0.252794 -0.810847
v -0.934937 0.252794 -0.485707
v -0.783070 0.252794 -0.177747
v -0.592306 0.252794 0.107754
v -0.365914 0.252794 0.365914
v -0.107754 0.252794 0.592306
v 0.177747 0.252794 0.783070
v 1.192157 0.302794 0.752926
v 0.897877 0.302794 0.704970
v 0.613037 0.302794 0.616807
v 1.441297 0.332794 -1.118457
v 1.393187 0.332794 -1.128026
v 1.346736 0.332794 -1.143796
v 1.302747 0.332794 -1.165487
v 1.261956 0.332794 -1.192737
v 1.225076 0.332794 -1.225076
v 1.192737 0.332794 -1.261956
v 1.165487 0.332794 -1.302747
v 1.143796 0.332794 -1.346736
v 1.128026 0.332794 -1.393187
v 1.118457 0.332794 -1.441297
v 1.120207 0.332794 -0.847727
v 1.206897 0.332794 -0.803566
v 1.298437 0.332794 -0.770617
v 1.393387 0.332794 -0.749397
v 1.441297 0.252794 -1.118457
v 1.261956 0.252794 -1.192737
v 1.225076 0.252794 -1.225076
v 1.302747 0.252794 -1.165487
v 1.346736 0.252794 -1.143796
v 1.393187 0.252794 -1.128026
v -0.752926 0.302794 -1.192157
v -0.704970 0.302794 -0.897877
v -0.616807 0.302794 -0.613037
v -0.490124 0.302794 -0.343117
v -0.327363 0.302794 -0.093297
v -0.131634 0.302794 0.131634
v 0.093297 0.302794 0.327363
v 0.343117 0.302794 0.490124
v 1.393387 0.302794 -0.749397
v 1.298437 0.302794 -0.770617
v 1.206897 0.302794 -0.803566
v 1.120207 0.302794 -0.847727
v 1.147617 0.252794 1.112296
v 0.485707 0.252794 0.934937
v 0.810847 0.252794 1.045308
v 1.118457 0.252794 -1.441297
v 1.128026 0.252794 -1.393187
v 1.143796 0.252794 -1.346736
v 1.165487 0.252794 -1.302747
v 1.192737 0.252794 -1.261956
v 1.490247 -0.297206 -1.490247
v 1.490247 -0.297206 1.509753
v -1.509753 -0.297206 1.509753
v -1.509753 -0.297206 -1.490247
v 1.490247 0.252794 -1.490247
v -1.509753 0.252794 -1.490247
v 1.490247 0.252794 1.509753
v -1.509753 0.252794 1.509753
vt -2.775150 0.600000
vt -2.677860 0.600000
vt -2.677860 0.630000
vt -2.775150 0.630000
vt -2.340590 0.600000
vt -2.243300 0.600000
vt -2.243300 0.630000
vt -2.340590 0.630000
vt -1.869890 0.600000
vt -1.772590 0.600000
vt -1.772590 0.630000
vt -1.869890 0.630000
vt -1.370450 0.600000
vt -1.273160 0.600000
vt -1.273160 0.630000
vt -1.370450 0.630000
vt -0.850161 0.600000
vt -0.752869 0.600000
vt -0.752869 0.630000
vt -0.850161 0.630000
vt -0.317230 0.600000
vt -0.219938 0.600000
vt -0.219938 0.630000
vt -0.317230 0.630000
vt 0.219938 0.600000
vt 0.317230 0.600000
vt 0.317230 0.630000
vt 0.219938 0.630000
vt 0.375000 0.000000
vt 2.625000 0.000000
vt 2.625000 0.550000
vt 2.625000 0.630000
vt 2.250000 0.630000
vt 2.250000 0.600000
vt 2.250000 0.300000
vt 0.750000 0.300000
vt 0.750000 0.600000
vt 0.750000 0.630000
vt 0.375000 0.630000
vt 0.375000 0.550000
vt -2.625000 0.000000
vt -0.375000 0.000000
vt -0.375000 0.550000
vt -0.375000 0.630000
vt -0.750000 0.630000
vt -0.750000 0.600000
vt -0.750000 0.300000
vt -2.250000 0.300000
vt -2.250000 0.600000
vt -2.250000 0.630000
vt -2.625000 0.630000
vt -2.625000 0.550000
vt 0.750000 3.000000
vt 0.375000 3.000000
vt 0.397457 2.657370
vt 0.464445 2.320600
vt 0.574816 1.995460
vt 0.726683 1.687500
vt 0.917447 1.402000
vt 1.143840 1.143840
vt 1.402000 0.917447
vt 1.687500 0.726683
vt 1.995460 0.574816
vt 2.320600 0.464445
vt 2.657370 0.397457
vt 3.000000 0.375000
vt 3.000000 0.750000
vt 2.701910 0.756827
vt 2.407630 0.804783
vt 2.122790 0.892946
vt 1.852870 1.019630
vt 1.603050 1.182390
vt 1.378120 1.378120
vt 1.182390 1.603050
vt 1.019630 1.852870
vt 0.892946 2.122790
vt 0.804783 2.407630
vt 0.756827 2.701910
vt -2.625680 0.630000
vt -2.969050 0.630000
vt -2.969050 0.550000
vt -2.625680 0.550000
vt -2.185400 0.630000
vt -2.528770 0.630000
vt -2.528770 0.550000
vt -2.185400 0.550000
vt -1.704790 0.630000
vt -2.048160 0.630000
vt -2.048160 0.550000
vt -1.704790 0.550000
vt -1.192070 0.630000
vt -1.535440 0.630000
vt -1.535440 0.550000
vt -1.192070 0.550000
vt -0.656015 0.630000
vt -0.999381 0.630000
vt -0.999381 0.550000
vt -0.656015 0.550000
vt -0.105799 0.630000
vt -0.449165 0.630000
vt -0.449165 0.550000
vt -0.105799 0.550000
vt 0.449165 0.630000
vt 0.105799 0.630000
vt 0.105799 0.550000
vt 0.449165 0.550000
vt 0.999381 0.630000
vt 0.656015 0.630000
vt 0.656015 0.550000
vt 0.999381 0.550000
vt -2.982040 0.600000
vt -2.683870 0.600000
vt -2.683870 0.630000
vt -2.982040 0.630000
vt -2.545010 0.600000
vt -2.246840 0.600000
vt -2.246840 0.630000
vt -2.545010 0.630000
vt -2.062010 0.600000
vt -1.763840 0.600000
vt -1.763840 0.630000
vt -2.062010 0.630000
vt 3.000000 2.250000
vt 3.000000 2.625000
vt 2.951050 2.628210
vt 2.902940 2.637780
vt 2.856490 2.653550
vt 2.812500 2.675240
vt 2.771710 2.702490
vt 2.734830 2.734830
vt 2.702490 2.771710
vt 2.675240 2.812500
vt 2.653550 2.856490
vt 2.637780 2.902940
vt 2.628210 2.951050
vt 2.625000 3.000000
vt 2.250000 3.000000
vt 2.259150 2.903140
vt 2.280370 2.808190
vt 2.313320 2.716650
vt 2.357480 2.629960
vt 2.412170 2.549490
vt 2.476510 2.476510
vt 2.549490 2.412170
vt 2.629960 2.357480
vt 2.716650 2.313320
vt 2.808190 2.280370
vt 2.903140 2.259150
vt -2.772840 0.630000
vt -2.821890 0.630000
vt -2.821890 0.550000
vt -2.772840 0.550000
vt -0.252956 0.630000
vt -0.302008 0.630000
vt -0.302008 0.550000
vt -0.252956 0.550000
vt -0.803172 0.630000
vt -0.852224 0.630000
vt -0.852224 0.550000
vt -0.803172 0.550000
vt -1.339230 0.630000
vt -1.388280 0.630000
vt -1.388280 0.550000
vt -1.339230 0.550000
vt -1.851950 0.630000
vt -1.901000 0.630000
vt -1.901000 0.550000
vt -1.851950 0.550000
vt -2.332560 0.630000
vt -2.381610 0.630000
vt -2.381610 0.550000
vt -2.332560 0.550000
vt 2.259150 2.903140
vt 2.250000 3.000000
vt 0.750000 3.000000
vt 0.756827 2.701910
vt 0.804783 2.407630
vt 0.892946 2.122790
vt 1.019630 1.852870
vt 1.182390 1.603050
vt 1.378120 1.378120
vt 1.603050 1.182390
vt 1.852870 1.019630
vt 2.122790 0.892946
vt 2.407630 0.804783
vt 2.701910 0.756827
vt 3.000000 0.750000
vt 3.000000 2.250000
vt 2.903140 2.259150
vt 2.808190 2.280370
vt 2.716650 2.313320
vt 2.629960 2.357480
vt 2.549490 2.412170
vt 2.476510 2.476510
vt 2.412170 2.549490
vt 2.357480 2.629960
vt 2.313320 2.716650
vt 2.280370 2.808190
vt -1.542300 0.600000
vt -1.244130 0.600000
vt -1.244130 0.630000
vt -1.542300 0.630000
vt 0.752869 0.600000
vt 0.850161 0.600000
vt 0.850161 0.630000
vt 0.752869 0.630000
vt 1.273160 0.600000
vt 1.370450 0.600000
vt 1.370450 0.630000
vt 1.273160 0.630000
vt 1.772590 0.600000
vt 1.869890 0.600000
vt 1.869890 0.630000
vt 1.772590 0.630000
vt 2.243300 0.600000
vt 2.340590 0.600000
vt 2.340590 0.630000
vt 2.243300 0.630000
vt 2.677860 0.600000
vt 2.775150 0.600000
vt 2.775150 0.630000
vt 2.677860 0.630000
vt 2.969050 0.630000
vt 2.625680 0.630000
vt 2.625680 0.550000
vt 2.969050 0.550000
vt 1.535440 0.630000
vt 1.192070 0.630000
vt 1.192070 0.550000
vt 1.535440 0.550000
vt 2.048160 0.630000
vt 1.704790 0.630000
vt 1.704790 0.550000
vt 2.048160 0.550000
vt 2.528770 0.630000
vt 2.185400 0.630000
vt 2.185400 0.550000
vt 2.528770 0.550000
vt -0.995851 0.600000
vt -0.697684 0.600000
vt -0.697684 0.630000
vt -0.995851 0.630000
vt -0.433156 0.600000
vt -0.134989 0.600000
vt -0.134989 0.630000
vt -0.433156 0.630000
vt 0.134989 0.600000
vt 0.433156 0.600000
vt 0.433156 0.630000
vt 0.134989 0.630000
vt 0.697684 0.600000
vt 0.995851 0.600000
vt 0.995851 0.630000
vt 0.697684 0.630000
vt 1.244130 0.600000
vt 1.542300 0.600000
vt 1.542300 0.630000
vt 1.244130 0.630000
vt 1.763840 0.600000
vt 2.062010 0.600000
vt 2.062010 0.630000
vt 1.763840 0.630000
vt 2.246840 0.600000
vt 2.545010 0.600000
vt 2.545010 0.630000
vt 2.246840 0.630000
vt 2.683870 0.600000
vt 2.982040 0.600000
vt 2.982040 0.630000
vt 2.683870 0.630000
vt 2.821890 0.630000
vt 2.772840 0.630000
vt 2.772840 0.550000
vt 2.821890 0.550000
vt 2.381610 0.630000
vt 2.332560 0.630000
vt 2.332560 0.550000
vt 2.381610 0.550000
vt 1.901000 0.630000
vt 1.851950 0.630000
vt 1.851950 0.550000
vt 1.901000 0.550000
vt 1.388280 0.630000
vt 1.339230 0.630000
vt 1.339230 0.550000
vt 1.388280 0.550000
vt 0.852224 0.630000
vt 0.803172 0.630000
vt 0.803172 0.550000
vt 0.852224 0.550000
vt 0.302008 0.630000
vt 0.252956 0.630000
vt 0.252956 0.550000
vt 0.302008 0.550000
vt -2.625000 3.000000
vt -3.000000 3.000000
vt -3.000000 2.625000
vt -3.000000 0.375000
vt -3.000000 -0.000000
vt -0.000000 0.000000
vt 0.000000 3.000000
vt -0.375000 3.000000
vt -3.000000 0.000000
vt -3.000000 0.550000
vt -0.000000 0.550000
vt -0.000000 0.000000
vt 3.000000 0.000000
vt 3.000000 0.375000
vt 2.657370 0.397457
vt 2.320600 0.464445
vt 1.995460 0.574816
vt 1.687500 0.726683
vt 1.402000 0.917447
vt 1.143840 1.143840
vt 0.917447 1.402000
vt 0.726683 1.687500
vt 0.574816 1.995460
vt 0.464445 2.320600
vt 0.397457 2.657370
vt 0.375000 3.000000
vt -0.000000 3.000000
vt 0.000000 0.000000
vt 0.000000 0.000000
vt 0.000000 0.550000
vt 3.000000 0.000000
vt 3.000000 0.550000
vt 0.000000 0.550000
vt -3.000000 -0.000000
vt -3.000000 0.550000
vt 3.000000 3.000000
vt 2.625000 3.000000
vt 2.628210 2.951050
vt 2.637780 2.902940
vt 2.653550 2.856490
vt 2.675240 2.812500
vt 2.702490 2.771710
vt 2.734830 2.734830
vt 2.771710 2.702490
vt 2.812500 2.675240
vt 2.856490 2.653550
vt 2.902940 2.637780
vt 2.951050 2.628210
vt 3.000000 2.625000
vt 3.000000 0.550000
vt 3.000000 0.000000
vn -0.9956 0.0000 0.0940
vn -0.9877 0.0000 0.1564
vn -0.9603 0.0000 0.2789
vn -0.9178 0.0000 0.3971
vn -0.8608 0.0000 0.5090
vn -0.7901 0.0000 0.6129
vn -0.7071 0.0000 0.7071
vn -0.6129 0.0000 0.7901
vn 1.0000 -0.0000 0.0000
vn 0.0000 0.0000 -1.0000
vn -0.0000 1.0000 0.0000
vn -0.9914 0.0000 0.1305
vn -0.9979 0.0000 0.0654
vn -0.9659 0.0000 0.2588
vn -0.9239 -0.0000 0.3827
vn -0.8660 -0.0000 0.5000
vn -0.7934 -0.0000 0.6088
vn -0.6088 -0.0000 0.7934
vn -0.5000 0.0000 0.8660
vn 0.0229 0.0000 -0.9997
vn 0.0921 0.0000 -0.9958
vn 0.2288 0.0000 -0.9735
vn 0.3611 0.0000 -0.9325
vn 0.1305 0.0000 -0.9914
vn 0.0654 0.0000 -0.9979
vn 0.7071 0.0000 -0.7071
vn 0.6087 0.0000 -0.7934
vn 0.4999 0.0000 -0.8661
vn 0.3827 0.0000 -0.9239
vn 0.2588 0.0000 -0.9659
vn 0.4865 0.0000 -0.8737
vn -0.5090 0.0000 0.8608
vn -0.3971 0.0000 0.9178
vn -0.2789 0.0000 0.9603
vn -0.1564 0.0000 0.9877
vn -0.0940 0.0000 0.9956
vn -0.0654 0.0000 0.9979
vn -0.1305 0.0000 0.9914
vn -0.3827 0.0000 0.9239
vn -0.2588 0.0000 0.9659
vn 0.6026 0.0000 -0.7980
vn 0.7980 0.0000 -0.6026
vn 0.8737 0.0000 -0.4865
vn 0.9325 0.0000 -0.3611
vn 0.9735 0.0000 -0.2288
vn 0.9958 0.0000 -0.0921
vn 0.9997 0.0000 -0.0229
vn 0.9979 0.0000 -0.0654
vn 0.9914 0.0000 -0.1305
vn 0.9659 0.0000 -0.2588
vn 0.9239 0.0000 -0.3827
vn 0.8661 0.0000 -0.4999
vn 0.7934 0.0000 -0.6087
vn 0.0000 -1.0000 -0.0000
vn 0.0000 0.0000 1.0000
vn -1.0000 0.0000 0.0000
usemtl Stone
s 1
f 1/1/1 2/2/2 3/3/2 4/4/1
f 2/5/2 5/6/3 6/7/3 3/8/2
f 5/9/3 7/10/4 8/11/4 6/12/3
f 7/13/4 9/14/5 10/15/5 8/16/4
f 9/17/5 11/18/6 12/19/6 10/20/5
f 11/21/6 13/22/7 14/23/7 12/24/6
f 13/25/7 15/26/8 16/27/8 14/28/7
f 17/29/9 18/30/9 19/31/9 20/32/9 21/33/9 22/34/9 23/35/9 24/36/9 25/37/9 26/38/9 27/39/9 28/40/9
f 29/41/10 30/42/10 31/43/10 32/44/10 33/45/10 34/46/10 35/47/10 36/48/10 1/49/10 4/50/10 37/51/10 38/52/10
f 33/53/11 32/54/11 39/55/11 40/56/11 41/57/11 42/58/11 43/59/11 44/60/11 45/61/11 46/62/11 47/63/11 48/64/11 49/65/11 27/66/11 26/67/11 50/68/11 51/69/11 52/70/11 53/71/11 54/72/11 55/73/11 56/74/11 57/75/11 58/76/11 59/77/11 60/78/11
f 39/79/12 32/80/13 31/81/13 61/82/12
f 40/83/14 39/84/12 61/85/12 62/86/14
f 41/87/15 40/88/14 62/89/14 63/90/15
f 42/91/16 41/92/15 63/93/15 64/94/16
f 43/95/17 42/96/16 64/97/16 65/98/17
f 44/99/7 43/100/17 65/101/17 66/102/7
f 45/103/18 44/104/7 66/105/7 67/106/18
f 46/107/19 45/108/18 67/109/18 68/110/19
f 25/111/20 69/112/21 50/113/21 26/114/20
f 69/115/21 70/116/22 51/117/22 50/118/21
f 70/119/22 71/120/23 52/121/23 51/122/22
f 21/123/11 20/124/11 72/125/11 73/126/11 74/127/11 75/128/11 76/129/11 77/130/11 78/131/11 79/132/11 80/133/11 81/134/11 82/135/11 37/136/11 4/137/11 3/138/11 6/139/11 8/140/11 10/141/11 12/142/11 14/143/11 16/144/11 83/145/11 84/146/11 85/147/11 86/148/11
f 72/149/24 20/150/25 19/151/25 87/152/24
f 77/153/26 76/154/27 88/155/27 89/156/26
f 76/157/27 75/158/28 90/159/28 88/160/27
f 75/161/28 74/162/29 91/163/29 90/164/28
f 74/165/29 73/166/30 92/167/30 91/168/29
f 73/169/30 72/170/24 87/171/24 92/172/30
usemtl Asphalt
f 2/173/11 1/174/11 34/175/11 93/176/11 94/177/11 95/178/11 96/179/11 97/180/11 98/181/11 99/182/11 100/183/11 71/184/11 70/185/11 69/186/11 25/187/11 22/188/11 101/189/11 102/190/11 103/191/11 104/192/11 15/193/11 13/194/11 11/195/11 9/196/11 7/197/11 5/198/11
f 1/49/10 36/48/10 35/47/10 34/46/10
f 25/37/9 24/36/9 23/35/9 22/34/9
usemtl Grass
f 71/199/23 100/200/31 53/201/31 52/202/23
f 15/203/8 104/204/32 83/205/32 16/206/8
f 104/207/32 103/208/33 84/209/33 83/210/32
f 103/211/33 102/212/34 85/213/34 84/214/33
f 102/215/34 101/216/35 86/217/35 85/218/34
f 101/219/35 22/220/36 21/221/36 86/222/35
f 27/223/37 49/224/38 105/225/38 28/226/37
f 47/227/39 46/228/19 68/229/19 106/230/39
f 48/231/40 47/232/39 106/233/39 107/234/40
f 49/235/38 48/236/40 107/237/40 105/238/38
f 100/239/31 99/240/41 54/241/41 53/242/31
f 99/243/41 98/244/26 55/245/26 54/246/41
f 98/247/26 97/248/42 56/249/42 55/250/26
f 97/251/42 96/252/43 57/253/43 56/254/42
f 96/255/43 95/256/44 58/257/44 57/258/43
f 95/259/44 94/260/45 59/261/45 58/262/44
f 94/263/45 93/264/46 60/265/46 59/266/45
f 93/267/46 34/268/47 33/269/47 60/270/46
f 37/271/48 82/272/49 108/273/49 38/274/48
f 82/275/49 81/276/50 109/277/50 108/278/49
f 81/279/50 80/280/51 110/281/51 109/282/50
f 80/283/51 79/284/52 111/285/52 110/286/51
f 79/287/52 78/288/53 112/289/53 111/290/52
f 78/291/53 77/292/26 89/293/26 112/294/53
f 29/295/54 113/296/54 18/297/54 17/298/54 114/299/54 115/300/54 116/301/54 30/302/54
f 113/303/10 29/41/10 38/52/10 117/304/10
f 118/305/10 31/43/10 30/42/10 116/306/10
f 119/307/11 28/308/11 105/309/11 107/310/11 106/311/11 68/312/11 67/313/11 66/314/11 65/315/11 64/316/11 63/317/11 62/318/11 61/319/11 31/320/11 118/321/11 120/322/11
f 114/323/9 17/29/9 28/40/9 119/324/9
f 115/300/55 114/325/55 119/326/55 120/327/55
f 116/328/56 115/300/56 120/327/56 118/329/56
f 117/330/11 38/331/11 108/332/11 109/333/11 110/334/11 111/335/11 112/336/11 89/337/11 88/338/11 90/339/11 91/340/11 92/341/11 87/342/11 19/343/11
f 117/344/9 19/31/9 18/30/9 113/345/9
