# Blender v2.80 (sub 75) OBJ File: ''
# www.blender.org
mtllib bridgeRamp.mtl
o roadTile_165
v -1.500000 1.700000 0.750000
v -1.500000 1.700000 -0.750000
v -1.500000 1.400000 -0.750000
v -1.500000 1.400000 0.750000
v 1.500000 0.600000 -0.750000
v 1.500000 0.600000 0.750000
v 1.500000 0.630000 -0.750000
v -1.500000 1.730000 -0.750000
v 1.500000 0.000000 1.125000
v 1.500000 0.000000 -1.125000
v 1.500000 0.550000 -1.125000
v 1.500000 0.630000 -1.125000
v 1.500000 0.300000 -0.750000
v 1.500000 0.300000 0.750000
v 1.500000 0.630000 0.750000
v 1.500000 0.630000 1.125000
v 1.500000 0.550000 1.125000
v 0.000000 0.000000 1.500000
v 0.000000 0.000000 -1.500000
v 1.500000 0.000000 -1.500000
v 1.500000 0.000000 1.500000
v 0.000000 0.550000 1.500000
v 0.000000 0.550000 -1.500000
v -1.500000 1.650000 1.500000
v -1.500000 1.100000 1.500000
v 1.500000 0.550000 1.500000
v -1.500000 1.650000 1.125000
v -1.500000 1.100000 1.125000
v -1.500000 1.650000 -1.125000
v -1.500000 1.100000 -1.125000
v -1.500000 1.730000 1.125000
v -1.500000 1.730000 0.750000
v -1.500000 1.730000 -1.125000
v -1.500000 1.650000 -1.500000
v -1.500000 1.100001 -1.500000
v 1.500000 0.550000 -1.500000
vt -0.750000 1.700000
vt -2.250000 1.700000
vt -2.250000 1.400000
vt -0.750000 1.400000
vt 2.250000 -2.610080
vt 2.250000 0.585233
vt 0.750000 0.585233
vt 0.750000 -2.610080
vt 2.250000 0.600000
vt 0.750000 0.600000
vt 0.750000 0.300000
vt 2.250000 0.300000
vt 0.000000 1.700000
vt 3.000000 0.600000
vt 3.000000 0.630000
vt 0.000000 1.730000
vt 0.375000 -0.000000
vt 2.625000 -0.000000
vt 2.625000 0.550000
vt 2.625000 0.630000
vt 2.250000 0.630000
vt 0.750000 0.630000
vt 0.375000 0.630000
vt 0.375000 0.550000
vt -2.625000 1.650000
vt -2.625000 1.100000
vt -0.375000 1.100000
vt -0.375000 1.650000
vt -0.375000 1.730000
vt -0.750000 1.730000
vt -2.250000 1.730000
vt -2.625000 1.730000
vt -3.000000 0.550000
vt -0.000000 1.650000
vt -0.000000 1.730000
vt -3.000000 0.630000
vt 2.250000 -2.599750
vt 2.625000 -2.599750
vt 2.625000 0.595561
vt 2.250000 0.595561
vt 0.000000 1.650000
vt 3.000000 0.550000
vt 3.000000 0.630000
vt 0.000000 1.730000
vt 0.750000 0.595561
vt 0.375000 0.595561
vt 0.375000 -2.599750
vt 0.750000 -2.599750
vt -3.000000 0.600000
vt -0.000000 1.700000
vt -0.000000 1.730000
vt -3.000000 0.630000
vt -1.500000 0.000000
vt -1.500000 3.000000
vt -3.000000 3.000000
vt -3.000000 2.625000
vt -3.000000 0.375000
vt -3.000000 0.000000
vt -0.000000 0.000000
vt -0.000000 0.550000
vt -3.000000 0.550000
vt -3.000000 0.000000
vt 0.000000 1.650000
vt 0.000000 1.100000
vt 1.500000 0.550000
vt 1.500000 -0.000000
vt 3.000000 -0.000000
vt 3.000000 0.550000
vt -3.000000 1.650000
vt -3.000000 1.100000
vt -3.000000 0.000000
vt -1.500000 0.000000
vt -1.500000 0.550000
vt -0.000000 1.100000
vt -0.000000 1.650000
vt -3.000000 0.550000
vt -0.000000 -1.218970
vt -0.000000 0.378680
vt -0.375000 0.378680
vt -2.625000 0.378680
vt -3.000000 0.378680
vt -3.000000 -1.218970
vt 2.625000 0.568020
vt 2.625000 -2.627290
vt 3.000000 -2.627290
vt 3.000000 0.568020
vt 3.000000 0.550000
vt 3.000000 0.000000
vt 0.375000 -2.627290
vt 0.375000 0.568020
vt 0.000000 0.568020
vt 0.000000 -2.627290
vt 0.000000 0.000000
vt 0.000000 0.550000
vn -1.0000 0.0000 0.0000
vn 0.3443 0.9389 0.0000
vn 1.0000 -0.0000 0.0000
vn 0.0000 0.0000 1.0000
vn -0.0000 0.0000 -1.0000
vn 0.0000 -1.0000 -0.0000
vn -0.3443 -0.9389 -0.0000
usemtl Asphalt
s 1
f 1/1/1 2/2/1 3/3/1 4/4/1
f 5/5/2 2/6/2 1/7/2 6/8/2
f 5/9/3 6/10/3 14/11/3 13/12/3
usemtl Stone
f 2/13/4 5/14/4 7/15/4 8/16/4
f 9/17/3 10/18/3 11/19/3 12/20/3 7/21/3 5/9/3 13/12/3 14/11/3 6/10/3 15/22/3 16/23/3 17/24/3
f 29/25/1 30/26/1 28/27/1 27/28/1 31/29/1 32/30/1 1/1/1 4/4/1 3/3/1 2/2/1 8/31/1 33/32/1
f 11/33/5 29/34/5 33/35/5 12/36/5
f 7/37/2 12/38/2 33/39/2 8/40/2
f 27/41/4 17/42/4 16/43/4 31/44/4
f 32/45/2 31/46/2 16/47/2 15/48/2
f 6/49/5 1/50/5 32/51/5 15/52/5
usemtl Grass
f 18/53/6 19/54/6 20/55/6 10/56/6 9/57/6 21/58/6
f 18/59/1 22/60/1 23/61/1 19/62/1
f 24/63/4 25/64/4 22/65/4 18/66/4 21/67/4 26/68/4
f 27/28/1 28/27/1 25/64/1 24/63/1
f 34/69/1 35/70/1 30/26/1 29/25/1
f 20/71/5 19/72/5 23/73/5 35/74/5 34/75/5 36/76/5
f 22/77/7 25/78/7 28/79/7 30/80/7 35/81/7 23/82/7
f 29/83/2 11/84/2 36/85/2 34/86/2
f 36/87/3 11/19/3 10/18/3 20/88/3
f 17/89/2 27/90/2 24/91/2 26/92/2
f 21/93/3 9/17/3 17/24/3 26/94/3
