# Blender v2.80 (sub 75) OBJ File: ''
# www.blender.org
mtllib RoadDirt.mtl
o roadTile_023.001
v 1.500000 0.194403 -0.750000
v 0.750000 0.194403 -0.937500
v -0.750000 0.194403 -0.562500
v -1.500000 0.194403 -0.750000
v -1.500000 0.194403 0.750000
v -0.750000 0.194403 0.937500
v 0.750000 0.194403 0.562500
v 1.500000 0.194403 0.750000
v 1.500000 0.289403 -0.750000
v 0.750000 0.289403 -0.937500
v 0.750000 0.289403 0.562500
v 1.500000 0.289403 0.750000
v 1.500000 0.014403 -0.750000
v 1.500000 0.014403 0.750000
v -0.750000 0.289403 0.937500
v -1.500000 0.289403 0.750000
v -1.500000 0.014403 0.750000
v -1.500000 0.014403 -0.750000
v -0.750000 0.289403 -0.562500
v -1.500000 0.289403 -0.750000
v -1.500000 0.289403 -1.500000
v 1.500000 0.289403 -1.500000
v -1.500000 0.289403 1.500000
v -1.500000 -0.260597 -1.500000
v -1.500000 -0.260597 1.500000
v 1.500000 0.289403 1.500000
v 1.500000 -0.260597 1.500000
v 1.500000 -0.260597 -1.500000
vt 3.000000 2.250000
vt 2.250000 2.437500
vt 0.750000 2.062500
vt 0.000000 2.250000
vt 0.000000 0.750000
vt 0.750000 0.562500
vt 2.250000 0.937500
vt 3.000000 0.750000
vt 2.364720 0.550000
vt 1.591640 0.550000
vt 1.591640 0.455000
vt 2.364720 0.455000
vt -1.955440 0.550000
vt -2.728530 0.550000
vt -2.728530 0.455000
vt -1.955440 0.455000
vt 2.250000 0.275000
vt 2.250000 0.455000
vt 0.750000 0.455000
vt 0.750000 0.275000
vt -0.864033 0.550000
vt -2.410200 0.550000
vt -2.410200 0.455000
vt -0.864033 0.455000
vt 0.181902 0.550000
vt -0.591181 0.550000
vt -0.591181 0.455000
vt 0.181902 0.455000
vt -0.750000 0.275000
vt -0.750000 0.455000
vt -2.250000 0.455000
vt -2.250000 0.275000
vt 0.227377 0.550000
vt -0.545705 0.550000
vt -0.545705 0.455000
vt 0.227377 0.455000
vt 2.774000 0.550000
vt 1.227840 0.550000
vt 1.227840 0.455000
vt 2.774000 0.455000
vt 0.000000 3.000000
vt 0.000000 2.250000
vt 0.750000 2.062500
vt 2.250000 2.437500
vt 3.000000 2.250000
vt 3.000000 3.000000
vt 0.000000 0.550000
vt -0.750000 0.550000
vt -2.250000 0.550000
vt -3.000000 0.550000
vt -3.000000 0.000000
vt 0.000000 0.000000
vt 3.000000 0.750000
vt 2.250000 0.937500
vt 0.750000 0.562500
vt 0.000000 0.750000
vt 0.000000 -0.000000
vt 3.000000 0.000000
vt 3.000000 0.550000
vt 2.250000 0.550000
vt 0.750000 0.550000
vt 0.000000 0.550000
vt 0.000000 0.000000
vt 3.000000 0.000000
vt 3.000000 0.000000
vt 3.000000 0.550000
vt -3.000000 0.000000
vt 0.000000 3.000000
vt -3.000000 3.000000
vt -3.000000 0.550000
vt -3.000000 0.000000
vt -0.000000 0.000000
vt -0.000000 0.550000
vn 0.0000 1.0000 0.0000
vn -0.2425 0.0000 0.9701
vn 0.2425 0.0000 -0.9701
vn 1.0000 0.0000 0.0000
vn -0.2425 0.0000 -0.9701
vn -1.0000 -0.0000 0.0000
vn 0.2425 0.0000 0.9701
vn 0.0000 0.0000 1.0000
vn 0.0000 -1.0000 -0.0000
vn 0.0000 0.0000 -1.0000
usemtl Alternate_Dirt.002
s 1
f 1/1/1 2/2/1 3/3/1 4/4/1 5/5/1 6/6/1 7/7/1 8/8/1
f 9/9/2 10/10/2 2/11/2 1/12/2
f 11/13/3 12/14/3 8/15/3 7/16/3
f 13/17/4 1/18/4 8/19/4 14/20/4
f 15/21/5 11/22/5 7/23/5 6/24/5
f 16/25/3 15/26/3 6/27/3 5/28/3
f 17/29/6 5/30/6 4/31/6 18/32/6
f 19/33/2 20/34/2 4/35/2 3/36/2
f 10/37/7 19/38/7 3/39/7 2/40/7
usemtl Grass.002
f 21/41/1 20/42/1 19/43/1 10/44/1 9/45/1 22/46/1
f 23/47/6 16/48/6 5/30/6 17/29/6 18/32/6 4/31/6 20/49/6 21/50/6 24/51/6 25/52/6
f 12/53/1 11/54/1 15/55/1 16/56/1 23/57/1 26/58/1
f 22/59/4 9/60/4 1/18/4 13/17/4 14/20/4 8/19/4 12/61/4 26/62/4 27/63/4 28/64/4
f 23/47/8 25/52/8 27/65/8 26/66/8
f 27/67/9 25/52/9 24/68/9 28/69/9
f 22/70/10 28/71/10 24/72/10 21/73/10
