# Blender v2.80 (sub 75) OBJ File: ''
# www.blender.org
mtllib Road.mtl
o Road
v -1.500000 0.235000 1.500000
v -1.500000 0.235000 1.125000
v -1.500000 -0.315000 1.125000
v -1.500000 -0.315000 1.500000
v 1.500000 0.235000 1.500000
v 1.500000 0.235000 1.125000
v 1.500000 -0.315000 1.500000
v 1.500000 -0.315000 1.125000
v -1.500000 -0.315000 -1.125000
v -1.500000 -0.315000 -1.500000
v 1.500000 -0.315000 -1.500000
v 1.500000 -0.315000 -1.125000
v -1.500000 0.315000 1.125000
v -1.500000 0.315000 0.750000
v -1.500000 0.285000 0.750000
v -1.500000 -0.015000 0.750000
v -1.500000 -0.015000 -0.750000
v -1.500000 0.285000 -0.750000
v -1.500000 0.315000 -0.750000
v -1.500000 0.315000 -1.125000
v -1.500000 0.235000 -1.125000
v 1.500000 0.315000 1.125000
v 1.500000 0.315000 0.750000
v 1.500000 0.235000 -1.125000
v 1.500000 0.315000 -1.125000
v 1.500000 0.315000 -0.750000
v 1.500000 0.285000 -0.750000
v 1.500000 -0.015000 -0.750000
v 1.500000 -0.015000 0.750000
v 1.500000 0.285000 0.750000
v 1.500000 0.235000 -1.500000
v -1.500000 0.235000 -1.500000
vt 0.000000 0.550000
vt -0.375000 0.550000
vt -0.375000 0.000000
vt 0.000000 0.000000
vt 3.000000 0.000000
vt 3.000000 0.375000
vt 0.000000 0.375000
vt 0.000000 0.000000
vt 0.000000 0.000000
vt 0.375000 0.000000
vt 0.375000 0.550000
vt 0.000000 0.550000
vt -0.000000 0.375000
vt -0.000000 2.625000
vt -0.000000 3.000000
vt -3.000000 3.000000
vt -3.000000 2.625000
vt -3.000000 0.375000
vt -3.000000 0.000000
vt 3.000000 0.550000
vt 2.625000 0.550000
vt 2.625000 0.000000
vt 3.000000 0.000000
vt 0.000000 3.000000
vt 0.000000 2.625000
vt 3.000000 2.625000
vt 3.000000 3.000000
vt -3.000000 0.000000
vt -2.625000 0.000000
vt -2.625000 0.550000
vt -3.000000 0.550000
vt -3.000000 0.000000
vt -0.000000 0.000000
vt -0.000000 0.550000
vt -3.000000 0.550000
vt 3.000000 -0.000000
vt 3.000000 0.550000
vt -0.375000 0.630000
vt -0.750000 0.630000
vt -0.750000 0.600000
vt -0.750000 0.300000
vt -2.250000 0.300000
vt -2.250000 0.600000
vt -2.250000 0.630000
vt -2.625000 0.630000
vt 3.000000 0.630000
vt 0.000000 0.630000
vt 0.000000 0.550000
vt 3.000000 0.550000
vt 0.000000 0.750000
vt 0.000000 0.375000
vt 3.000000 0.375000
vt 3.000000 0.750000
vt 2.625000 0.630000
vt 2.250000 0.630000
vt 2.250000 0.600000
vt 2.250000 0.300000
vt 0.750000 0.300000
vt 0.750000 0.600000
vt 0.750000 0.630000
vt 0.375000 0.630000
vt -0.000000 0.630000
vt -3.000000 0.630000
vt -3.000000 0.550000
vt -0.000000 0.550000
vt 3.000000 2.250000
vt 3.000000 2.625000
vt 0.000000 2.625000
vt 0.000000 2.250000
vt 0.000000 0.600000
vt 3.000000 0.600000
vt 3.000000 0.630000
vt 0.000000 0.630000
vt -3.000000 0.600000
vt -0.000000 0.600000
vt -0.000000 0.630000
vt -3.000000 0.630000
vt 3.000000 2.250000
vt 0.000000 2.250000
vt 0.000000 0.750000
vt 3.000000 0.750000
vn -1.0000 0.0000 0.0000
vn 0.0000 1.0000 0.0000
vn 1.0000 0.0000 0.0000
vn 0.0000 -1.0000 -0.0000
vn 0.0000 0.0000 -1.0000
vn 0.0000 0.0000 1.0000
usemtl Grass
s 1
f 1/1/1 2/2/1 3/3/1 4/4/1
f 5/5/2 6/6/2 2/7/2 1/8/2
f 7/9/3 8/10/3 6/11/3 5/12/3
f 4/4/4 3/13/4 9/14/4 10/15/4 11/16/4 12/17/4 8/18/4 7/19/4
f 31/20/3 24/21/3 12/22/3 11/23/3
f 32/24/2 21/25/2 24/26/2 31/27/2
f 10/28/1 9/29/1 21/30/1 32/31/1
f 11/32/5 10/33/5 32/34/5 31/35/5
f 4/4/6 7/36/6 5/37/6 1/1/6
usemtl Stone
f 9/29/1 3/3/1 2/2/1 13/38/1 14/39/1 15/40/1 16/41/1 17/42/1 18/43/1 19/44/1 20/45/1 21/30/1
f 22/46/6 13/47/6 2/48/6 6/49/6
f 14/50/2 13/51/2 22/52/2 23/53/2
f 8/10/3 12/22/3 24/21/3 25/54/3 26/55/3 27/56/3 28/57/3 29/58/3 30/59/3 23/60/3 22/61/3 6/11/3
f 20/62/5 25/63/5 24/64/5 21/65/5
f 26/66/2 25/67/2 20/68/2 19/69/2
f 18/70/6 27/71/6 26/72/6 19/73/6
f 30/74/5 15/75/5 14/76/5 23/77/5
usemtl Asphalt
f 27/78/2 18/79/2 15/80/2 30/81/2
f 18/43/1 17/42/1 16/41/1 15/40/1
f 30/59/3 29/58/3 28/57/3 27/56/3
